<svg xmlns="http://www.w3.org/2000/svg" width="357.21" height="66.39"><rect id="backgroundrect" width="100%" height="100%" x="0" y="0" fill="none" stroke="none"/><title>logo-white</title><g class="currentLayer" style=""><title>Layer 1</title><path d="M154.61.27c-.18.06-1.44.36-2.79.67-11.21,2.58-18,11.43-16.38,21.48,1.42,9,6.93,13.28,21.82,16.83,12,2.87,14.38,4.17,14.38,7.93,0,9.14-18.73,8.8-29-.54-1.92-1.74-1.88-1.76-5.84,3.84-4.17,5.88-4.13,5.61-1,8.07,9.53,7.43,27.54,10.16,37.42,5.66.78-.35,1.79-.79,2.25-1,7.41-2.82,12.43-13.6,10.24-22s-7.62-12.07-24-16c-9-2.18-12.25-4-12.25-6.59,0-7.78,15.48-8.18,25.38-.66a10.17,10.17,0,0,0,2,1.32c.55,0,7.71-9.91,7.52-10.41-.58-1.51-7.95-5.77-12.28-7.11S157-.48,154.61.27M63,1.52a6.94,6.94,0,0,0-2.6,3.06l-1,2V27.1l1,2a6.66,6.66,0,0,0,2.54,3c1.11.71,1.55,1.21,1.56,1.78C65,54.94,84.55,70.43,103,64.25c11.28-3.78,20.09-15.64,21-28.21.19-2.68.27-3,1.06-3.45,4-2.45,4.14-3.05,4.27-14.79s0-12.62-2-14.89c-1.86-2.11-2.84-2.46-7-2.46H116.8l-.13,18.1-.13,18.1-.84,2.83C109,62,82.18,63.46,73.8,41.77c-1.52-3.94-1.67-6.21-1.67-24.49V.44H68.36c-3.7,0-3.79,0-5.37,1.07m12.47-.2c-1.05,1.34-1.07,29.48,0,30.53a2.61,2.61,0,0,0,3.5,0c.64-.71,1.19-25.92.63-29C79.14.49,76.79-.37,75.46,1.31m34.41-.11c-.72.76-.72.83-.72,15.31V31.07l.76.72a2.44,2.44,0,0,0,3.4,0c.63-.69,1.2-27,.63-29.31a2.41,2.41,0,0,0-4.08-1.29M.48,1c-.7.28-.6,63.77.11,64,.89.34,35.52.21,38-.14,7.79-1.13,12.29-5,14.69-12.57,2.22-7-2.33-17.21-8.74-19.53-1.49-.54-1.43-1,.27-1.76,7.84-3.72,10.09-16.11,4.31-23.69-2.42-3.17-6.3-5.23-11.5-6.1C35,.79,1.5.58.48,1M190,1.2c-.09.24-.12,3-.07,6.2l.09,5.77,9.17.09,9.17.09V64.89l.74.18c.41.1,3.54.14,7,.09l6.21-.09,0-24.8c0-13.64.08-25.28.19-25.86l.21-1.06,9.13-.09,9.13-.09V.94L215.51.85C195,.79,190.09.85,190,1.2M249.73,1c-.33.13-.41,6.85-.41,32V64.89l.74.18c.41.1,10.64.14,22.73.09l22-.09.09-6,.09-6-15.79-.09-15.79-.09-.09-6.73c-.06-4.74,0-6.87.29-7.2s2.94-.46,15.46-.44l15.08,0V26.39l-15.37-.17-15.37-.17V13.5l15.7-.16,15.7-.17.09-5.74c.06-4,0-5.88-.29-6.2S250.83.55,249.73,1m55.67,0c-.54.54-.24,63.83.3,64a68.88,68.88,0,0,0,6.94.2h6.42l.09-11.32.09-11.32,4.13-.1c5.49-.13,5.31-.2,7,2.82l2.22,4.05c.77,1.4,3.07,5.53,5.33,9.59.56,1,1.56,2.82,2.21,4.05l1.2,2.23h7.87a67,67,0,0,0,8-.25,17.86,17.86,0,0,0-1.92-3.72c-12.59-21-12.47-20.82-11-20.82,3.72,0,10.2-6.85,11.88-12.56,3.75-12.76-3.68-24.36-17.09-26.65C336.28.76,305.86.54,305.41,1M34.61,14.14c4.81,3.1,4.85,8.79.08,11.21l-1.76.89-9.41-.09-9.41-.09L14,20.12c0-3.27,0-6.14.08-6.39.31-.8,19.21-.43,20.51.4m303,0c5.26,2.8,6.62,8.71,3,12.88-2.49,2.83-3.21,3-12.87,3l-8.43,0-.09-7.93c0-4.36,0-8.13.08-8.38.3-.77,16.82-.42,18.35.4M33.29,38.91c4.81,1,7,4.61,5.77,9.21-1.14,4.12-3.07,4.72-15.19,4.72H14.11L14,46.11c-.06-4.69,0-6.87.29-7.19.52-.63,16.07-.63,19,0" fill="#ffffff" id="svg_1" class="selected" fill-opacity="1"/></g></svg>